<?xml version="1.0" encoding="UTF-8" ?>
<svg version="1.1" width="64" height="64" xmlns="http://www.w3.org/2000/svg" shape-rendering="crispEdges">
<rect x="36" y="4" width="2" height="3" fill="#060608" />
<rect x="38" y="4" width="4" height="1" fill="#000000" />
<rect x="42" y="4" width="2" height="1" fill="#060608" />
<rect x="35" y="5" width="1" height="1" fill="#060608" />
<rect x="38" y="5" width="1" height="4" fill="#060608" />
<rect x="39" y="5" width="7" height="1" fill="#000000" />
<rect x="34" y="6" width="2" height="8" fill="#000000" />
<rect x="39" y="6" width="1" height="2" fill="#060608" />
<rect x="40" y="6" width="7" height="3" fill="#000000" />
<rect x="13" y="7" width="6" height="5" fill="#000000" />
<rect x="33" y="7" width="1" height="16" fill="#000000" />
<rect x="36" y="7" width="1" height="5" fill="#000000" />
<rect x="37" y="7" width="1" height="3" fill="#060608" />
<rect x="47" y="7" width="1" height="20" fill="#000000" />
<rect x="12" y="8" width="1" height="22" fill="#000000" />
<rect x="19" y="8" width="1" height="6" fill="#000000" />
<rect x="32" y="8" width="1" height="16" fill="#000000" />
<rect x="39" y="8" width="1" height="1" fill="#000000" />
<rect x="11" y="9" width="1" height="21" fill="#000000" />
<rect x="20" y="9" width="1" height="10" fill="#000000" />
<rect x="38" y="9" width="1" height="1" fill="#000000" />
<rect x="39" y="9" width="4" height="17" fill="#FFFFFF" />
<rect x="43" y="9" width="4" height="1" fill="#000000" />
<rect x="48" y="9" width="1" height="3" fill="#060608" />
<rect x="10" y="10" width="1" height="21" fill="#000000" />
<rect x="21" y="10" width="1" height="11" fill="#000000" />
<rect x="31" y="10" width="1" height="14" fill="#000000" />
<rect x="37" y="10" width="1" height="1" fill="#000000" />
<rect x="38" y="10" width="1" height="16" fill="#FFFFFF" />
<rect x="43" y="10" width="1" height="6" fill="#FFFFFF" />
<rect x="44" y="10" width="3" height="1" fill="#000000" />
<rect x="9" y="11" width="1" height="13" fill="#000000" />
<rect x="22" y="11" width="1" height="11" fill="#000000" />
<rect x="37" y="11" width="1" height="16" fill="#FFFFFF" />
<rect x="44" y="11" width="1" height="4" fill="#FFFFFF" />
<rect x="45" y="11" width="2" height="14" fill="#000000" />
<rect x="8" y="12" width="1" height="9" fill="#000000" />
<rect x="13" y="12" width="2" height="1" fill="#000000" />
<rect x="15" y="12" width="3" height="34" fill="#FFFFFF" />
<rect x="18" y="12" width="1" height="1" fill="#000000" />
<rect x="23" y="12" width="1" height="11" fill="#000000" />
<rect x="30" y="12" width="1" height="12" fill="#000000" />
<rect x="36" y="12" width="1" height="25" fill="#FFFFFF" />
<rect x="48" y="12" width="1" height="6" fill="#000000" />
<rect x="13" y="13" width="1" height="1" fill="#000000" />
<rect x="14" y="13" width="1" height="11" fill="#FFFFFF" />
<rect x="18" y="13" width="1" height="15" fill="#FFFFFF" />
<rect x="24" y="13" width="1" height="11" fill="#000000" />
<rect x="13" y="14" width="1" height="7" fill="#FFFFFF" />
<rect x="19" y="14" width="1" height="13" fill="#FFFFFF" />
<rect x="25" y="14" width="1" height="10" fill="#000000" />
<rect x="34" y="14" width="1" height="8" fill="#000000" />
<rect x="35" y="14" width="1" height="1" fill="#060608" />
<rect x="35" y="15" width="1" height="22" fill="#FFFFFF" />
<rect x="44" y="15" width="1" height="2" fill="#060608" />
<rect x="43" y="16" width="1" height="7" fill="#060608" />
<rect x="44" y="17" width="1" height="7" fill="#000000" />
<rect x="26" y="18" width="1" height="6" fill="#000000" />
<rect x="29" y="18" width="1" height="1" fill="#060608" />
<rect x="20" y="19" width="1" height="8" fill="#FFFFFF" />
<rect x="27" y="19" width="3" height="5" fill="#000000" />
<rect x="13" y="21" width="1" height="8" fill="#000000" />
<rect x="21" y="21" width="1" height="6" fill="#FFFFFF" />
<rect x="48" y="21" width="1" height="7" fill="#000000" />
<rect x="22" y="22" width="1" height="6" fill="#FFFFFF" />
<rect x="34" y="22" width="1" height="15" fill="#FFFFFF" />
<rect x="23" y="23" width="1" height="7" fill="#FFFFFF" />
<rect x="33" y="23" width="1" height="14" fill="#FFFFFF" />
<rect x="43" y="23" width="1" height="25" fill="#FFFFFF" />
<rect x="49" y="23" width="1" height="7" fill="#000000" />
<rect x="14" y="24" width="1" height="3" fill="#000000" />
<rect x="24" y="24" width="9" height="13" fill="#FFFFFF" />
<rect x="44" y="24" width="1" height="24" fill="#FFFFFF" />
<rect x="50" y="24" width="2" height="6" fill="#000000" />
<rect x="45" y="25" width="1" height="23" fill="#FFFFFF" />
<rect x="46" y="25" width="1" height="1" fill="#000000" />
<rect x="52" y="25" width="3" height="6" fill="#000000" />
<rect x="8" y="26" width="2" height="5" fill="#000000" />
<rect x="38" y="26" width="3" height="8" fill="#060608" />
<rect x="41" y="26" width="2" height="1" fill="#FFFFFF" />
<rect x="46" y="26" width="1" height="21" fill="#FFFFFF" />
<rect x="55" y="26" width="2" height="6" fill="#000000" />
<rect x="6" y="27" width="2" height="7" fill="#000000" />
<rect x="14" y="27" width="1" height="18" fill="#FFFFFF" />
<rect x="19" y="27" width="3" height="8" fill="#060608" />
<rect x="37" y="27" width="1" height="5" fill="#060608" />
<rect x="41" y="27" width="1" height="8" fill="#060608" />
<rect x="42" y="27" width="1" height="2" fill="#FFFFFF" />
<rect x="47" y="27" width="1" height="20" fill="#FFFFFF" />
<rect x="57" y="27" width="1" height="18" fill="#000000" />
<rect x="5" y="28" width="1" height="17" fill="#000000" />
<rect x="18" y="28" width="1" height="4" fill="#060608" />
<rect x="22" y="28" width="1" height="8" fill="#060608" />
<rect x="48" y="28" width="1" height="19" fill="#FFFFFF" />
<rect x="58" y="28" width="1" height="15" fill="#000000" />
<rect x="4" y="29" width="1" height="15" fill="#000000" />
<rect x="13" y="29" width="1" height="16" fill="#FFFFFF" />
<rect x="42" y="29" width="1" height="5" fill="#060608" />
<rect x="59" y="29" width="1" height="13" fill="#000000" />
<rect x="3" y="30" width="1" height="13" fill="#000000" />
<rect x="11" y="30" width="2" height="13" fill="#FFFFFF" />
<rect x="23" y="30" width="1" height="5" fill="#060608" />
<rect x="49" y="30" width="2" height="15" fill="#FFFFFF" />
<rect x="51" y="30" width="1" height="1" fill="#000000" />
<rect x="60" y="30" width="1" height="11" fill="#000000" />
<rect x="8" y="31" width="1" height="1" fill="#000000" />
<rect x="9" y="31" width="2" height="11" fill="#FFFFFF" />
<rect x="51" y="31" width="3" height="10" fill="#FFFFFF" />
<rect x="54" y="31" width="1" height="1" fill="#000000" />
<rect x="61" y="31" width="1" height="7" fill="#000000" />
<rect x="8" y="32" width="1" height="9" fill="#FFFFFF" />
<rect x="18" y="32" width="1" height="16" fill="#FFFFFF" />
<rect x="37" y="32" width="1" height="6" fill="#FFFFFF" />
<rect x="54" y="32" width="2" height="5" fill="#FFFFFF" />
<rect x="56" y="32" width="1" height="14" fill="#000000" />
<rect x="2" y="33" width="1" height="5" fill="#000000" />
<rect x="6" y="34" width="1" height="12" fill="#000000" />
<rect x="7" y="34" width="1" height="4" fill="#FFFFFF" />
<rect x="38" y="34" width="1" height="14" fill="#FFFFFF" />
<rect x="39" y="34" width="2" height="1" fill="#060608" />
<rect x="42" y="34" width="1" height="14" fill="#FFFFFF" />
<rect x="19" y="35" width="1" height="13" fill="#FFFFFF" />
<rect x="20" y="35" width="2" height="1" fill="#060608" />
<rect x="23" y="35" width="1" height="13" fill="#FFFFFF" />
<rect x="39" y="35" width="3" height="13" fill="#FFFFFF" />
<rect x="20" y="36" width="3" height="12" fill="#FFFFFF" />
<rect x="24" y="37" width="2" height="1" fill="#FFFFFF" />
<rect x="26" y="37" width="4" height="5" fill="#060608" />
<rect x="30" y="37" width="3" height="1" fill="#FFFFFF" />
<rect x="33" y="37" width="4" height="5" fill="#060608" />
<rect x="54" y="37" width="1" height="3" fill="#FFFFFF" />
<rect x="55" y="37" width="1" height="10" fill="#000000" />
<rect x="7" y="38" width="1" height="9" fill="#000000" />
<rect x="24" y="38" width="1" height="10" fill="#FFFFFF" />
<rect x="25" y="38" width="1" height="3" fill="#060608" />
<rect x="30" y="38" width="3" height="5" fill="#060608" />
<rect x="37" y="38" width="1" height="3" fill="#060608" />
<rect x="54" y="40" width="1" height="8" fill="#000000" />
<rect x="8" y="41" width="1" height="7" fill="#000000" />
<rect x="25" y="41" width="1" height="7" fill="#FFFFFF" />
<rect x="37" y="41" width="1" height="7" fill="#FFFFFF" />
<rect x="51" y="41" width="2" height="1" fill="#FFFFFF" />
<rect x="53" y="41" width="1" height="8" fill="#000000" />
<rect x="9" y="42" width="1" height="7" fill="#000000" />
<rect x="10" y="42" width="1" height="1" fill="#FFFFFF" />
<rect x="26" y="42" width="1" height="6" fill="#FFFFFF" />
<rect x="27" y="42" width="3" height="1" fill="#060608" />
<rect x="33" y="42" width="2" height="1" fill="#060608" />
<rect x="35" y="42" width="2" height="6" fill="#FFFFFF" />
<rect x="51" y="42" width="1" height="2" fill="#FFFFFF" />
<rect x="52" y="42" width="1" height="8" fill="#000000" />
<rect x="10" y="43" width="2" height="6" fill="#000000" />
<rect x="12" y="43" width="1" height="1" fill="#FFFFFF" />
<rect x="27" y="43" width="8" height="5" fill="#FFFFFF" />
<rect x="12" y="44" width="1" height="7" fill="#000000" />
<rect x="51" y="44" width="1" height="7" fill="#000000" />
<rect x="13" y="45" width="2" height="6" fill="#000000" />
<rect x="49" y="45" width="1" height="1" fill="#FFFFFF" />
<rect x="50" y="45" width="1" height="6" fill="#000000" />
<rect x="15" y="46" width="3" height="5" fill="#000000" />
<rect x="49" y="46" width="1" height="6" fill="#000000" />
<rect x="46" y="47" width="3" height="5" fill="#000000" />
<rect x="18" y="48" width="28" height="5" fill="#000000" />
<rect x="11" y="49" width="1" height="1" fill="#000000" />
<rect x="16" y="51" width="2" height="1" fill="#000000" />
<rect x="46" y="52" width="2" height="1" fill="#000000" />
</svg>